<?xml version="1.0" encoding="UTF-8" standalone="no"?>
<!DOCTYPE svg PUBLIC "-//W3C//DTD SVG 1.1//EN"
 "http://www.w3.org/Graphics/SVG/1.1/DTD/svg11.dtd">
<!-- Generated by graphviz version 2.44.1 (20200629.0846)
 -->
<!-- Pages: 1 -->
<svg width="92pt" height="294pt"
 viewBox="0.00 0.00 91.69 293.81" xmlns="http://www.w3.org/2000/svg" xmlns:xlink="http://www.w3.org/1999/xlink">
<g id="graph0" class="graph" transform="scale(1 1) rotate(0) translate(4 289.81)">
<polygon fill="white" stroke="transparent" points="-4,4 -4,-289.81 87.69,-289.81 87.69,4 -4,4"/>
<!-- A -->
<g id="node1" class="node">
<title>A</title>
<polygon fill="lightgray" stroke="black" points="71.98,-285.81 48.98,-285.81 48.98,-267.81 71.98,-267.81 71.98,-285.81"/>
<text text-anchor="middle" x="60.48" y="-274.61" font-family="Times,serif" font-size="9.00">A</text>
</g>
<!-- 693 -->
<g id="node4" class="node">
<title>693</title>
<ellipse fill="white" stroke="black" cx="62.48" cy="-132.17" rx="21.43" ry="21.43"/>
<text text-anchor="middle" x="62.48" y="-129.97" font-family="Times,serif" font-size="9.00">693</text>
</g>
<!-- A&#45;&gt;693 -->
<g id="edge4" class="edge">
<title>A&#45;&gt;693</title>
<path fill="none" stroke="green" stroke-width="0.3" d="M62.39,-267.76C64.37,-258.98 67.33,-244.49 68.48,-231.81 70.54,-208.88 68.8,-182.9 66.67,-163.35"/>
<polygon fill="green" stroke="green" stroke-width="0.3" points="70.12,-162.74 65.46,-153.22 63.17,-163.56 70.12,-162.74"/>
</g>
<!-- 168 -->
<g id="node5" class="node">
<title>168</title>
<ellipse fill="white" stroke="black" cx="38.48" cy="-210.59" rx="21.43" ry="21.43"/>
<text text-anchor="middle" x="38.48" y="-208.39" font-family="Times,serif" font-size="9.00">168</text>
</g>
<!-- A&#45;&gt;168 -->
<g id="edge3" class="edge">
<title>A&#45;&gt;168</title>
<path fill="none" stroke="green" stroke-width="0.63" d="M57.69,-267.67C55.33,-260.79 51.8,-250.49 48.41,-240.59"/>
<polygon fill="green" stroke="green" stroke-width="0.63" points="51.66,-239.28 45.11,-230.96 45.04,-241.55 51.66,-239.28"/>
</g>
<!-- B -->
<g id="node2" class="node">
<title>B</title>
<polygon fill="lightgray" stroke="black" points="26.98,-285.81 3.98,-285.81 3.98,-267.81 26.98,-267.81 26.98,-285.81"/>
<text text-anchor="middle" x="15.48" y="-274.61" font-family="Times,serif" font-size="9.00">B</text>
</g>
<!-- B&#45;&gt;693 -->
<g id="edge6" class="edge">
<title>B&#45;&gt;693</title>
<path fill="none" stroke="green" stroke-width="0.42" d="M12.36,-267.33C7.02,-251.4 -2.32,-216.19 8.48,-189.38 14.45,-174.53 26.44,-161.4 37.6,-151.57"/>
<polygon fill="green" stroke="green" stroke-width="0.42" points="40.03,-154.11 45.48,-145.02 35.56,-148.72 40.03,-154.11"/>
</g>
<!-- B&#45;&gt;168 -->
<g id="edge1" class="edge">
<title>B&#45;&gt;168</title>
<path fill="none" stroke="green" stroke-width="0.52" d="M18.39,-267.67C20.87,-260.74 24.6,-250.34 28.17,-240.37"/>
<polygon fill="green" stroke="green" stroke-width="0.52" points="31.56,-241.28 31.64,-230.69 24.97,-238.92 31.56,-241.28"/>
</g>
<!-- A XOR B -->
<g id="node3" class="node">
<title>A XOR B</title>
<ellipse fill="lightblue" stroke="black" cx="37.48" cy="-37.48" rx="37.45" ry="37.45"/>
<text text-anchor="middle" x="37.48" y="-35.28" font-family="Times,serif" font-size="9.00">A XOR B</text>
</g>
<!-- 693&#45;&gt;A XOR B -->
<g id="edge5" class="edge">
<title>693&#45;&gt;A XOR B</title>
<path fill="none" stroke="red" stroke-width="0.61" d="M57.17,-111.51C54.96,-103.3 52.29,-93.39 49.64,-83.56"/>
<polygon fill="red" stroke="red" stroke-width="0.61" points="52.99,-82.57 47.01,-73.82 46.24,-84.39 52.99,-82.57"/>
</g>
<!-- 168&#45;&gt;A XOR B -->
<g id="edge2" class="edge">
<title>168&#45;&gt;A XOR B</title>
<path fill="none" stroke="green" stroke-width="0.68" d="M35.79,-189.34C34.51,-178.66 33.11,-165.34 32.48,-153.38 31.28,-130.95 32.1,-106.04 33.4,-85.17"/>
<polygon fill="green" stroke="green" stroke-width="0.68" points="36.91,-85.18 34.09,-74.97 29.92,-84.71 36.91,-85.18"/>
</g>
<!-- 168&#45;&gt;693 -->
<g id="edge7" class="edge">
<title>168&#45;&gt;693</title>
<path fill="none" stroke="red" stroke-width="0.15" d="M44.66,-189.91C47.31,-181.47 50.46,-171.43 53.37,-162.16"/>
<polygon fill="red" stroke="red" stroke-width="0.15" points="56.74,-163.11 56.4,-152.52 50.06,-161.01 56.74,-163.11"/>
</g>
</g>
</svg>
